<svg width="84" height="81" viewBox="0 0 84 81" fill="none" xmlns="http://www.w3.org/2000/svg">
<g clip-path="url(#clip0_11252_2)">
<path d="M42 0C18.8398 0 0 18.1687 0 40.5C0 62.8313 18.8398 81 42 81C65.1602 81 84 62.8313 84 40.5C84 18.1687 65.1602 0 42 0ZM42 77.6251C20.771 77.6251 3.49995 60.9709 3.49995 40.5C3.49995 20.0291 20.771 3.37495 42 3.37495C63.229 3.37495 80.5001 20.0291 80.5001 40.5C80.5001 60.9709 63.229 77.6251 42 77.6251Z" fill="white"/>
<path d="M58.6973 39.0811L34.1973 23.8936C33.6607 23.5558 32.9668 23.5376 32.4131 23.8309C31.8491 24.1276 31.5005 24.6946 31.5005 25.3125V55.6875C31.5005 56.3055 31.8491 56.8725 32.4131 57.1691C32.6728 57.3059 32.9634 57.3751 33.2505 57.3751C33.5786 57.3751 33.9102 57.286 34.1973 57.1064L58.6973 41.9189C59.1963 41.6092 59.5005 41.0735 59.5005 40.5C59.5005 39.9265 59.1963 39.391 58.6973 39.0811ZM35.0004 52.5959V28.4041L54.5137 40.5L35.0004 52.5959Z" fill="white"/>
</g>
<defs>
<clipPath id="clip0_11252_2">
<rect width="84" height="81" fill="white"/>
</clipPath>
</defs>
</svg>
